<svg
  width="24"
  height="24"
  viewBox="0 0 24 24"
  fill="none"
  xmlns="http://www.w3.org/2000/svg"
>
  <path
    d="M9 12C9 13.1046 8.10457 14 7 14C5.89543 14 5 13.1046 5 12C5 10.8954 5.89543 10 7 10C8.10457 10 9 10.8954 9 12Z"
    fill="currentColor"
  />
  <path
    d="M14 12C14 13.1046 13.1046 14 12 14C10.8954 14 10 13.1046 10 12C10 10.8954 10.8954 10 12 10C13.1046 10 14 10.8954 14 12Z"
    fill="currentColor"
  />
  <path
    d="M19 14C20.1046 14 21 13.1046 21 12C21 10.8954 20.1046 10 19 10C17.8954 10 17 10.8954 17 12C17 13.1046 17.8954 14 19 14Z"
    fill="currentColor"
  />
  <path
    d="M14 7C14 8.10457 13.1046 9 12 9C10.8954 9 10 8.10457 10 7C10 5.89543 10.8954 5 12 5C13.1046 5 14 5.89543 14 7Z"
    fill="currentColor"
  />
  <path
    d="M9 7C9 8.10457 8.10457 9 7 9C5.89543 9 5 8.10457 5 7C5 5.89543 5.89543 5 7 5C8.10457 5 9 5.89543 9 7Z"
    fill="currentColor"
  />
  <path
    d="M19 9C20.1046 9 21 8.10457 21 7C21 5.89543 20.1046 5 19 5C17.8954 5 17 5.89543 17 7C17 8.10457 17.8954 9 19 9Z"
    fill="currentColor"
  />
  <path
    d="M14 17C14 18.1046 13.1046 19 12 19C10.8954 19 10 18.1046 10 17C10 15.8954 10.8954 15 12 15C13.1046 15 14 15.8954 14 17Z"
    fill="currentColor"
  />
  <path
    d="M9 17C9 18.1046 8.10457 19 7 19C5.89543 19 5 18.1046 5 17C5 15.8954 5.89543 15 7 15C8.10457 15 9 15.8954 9 17Z"
    fill="currentColor"
  />
  <path
    d="M19 19C20.1046 19 21 18.1046 21 17C21 15.8954 20.1046 15 19 15C17.8954 15 17 15.8954 17 17C17 18.1046 17.8954 19 19 19Z"
    fill="currentColor"
  />
</svg>