<svg
  width="24"
  height="24"
  viewBox="0 0 24 24"
  fill="none"
  xmlns="http://www.w3.org/2000/svg"
>
  <path
    fillRule="evenodd"
    clipRule="evenodd"
    d="M8 4C8 3.44772 8.44772 3 9 3H15C15.5523 3 16 3.44772 16 4V6C16 6.55228 15.5523 7 15 7H9C8.44772 7 8 6.55228 8 6V4ZM15 5H9V6H15V5Z"
    fill="currentColor"
  />
  <path
    fillRule="evenodd"
    clipRule="evenodd"
    d="M4 8C3.44772 8 3 8.44772 3 9V15C3 15.5523 3.44772 16 4 16H6C6.55228 16 7 15.5523 7 15V9C7 8.44772 6.55228 8 6 8H4ZM5 9V15H6V9H5Z"
    fill="currentColor"
  />
  <path
    fillRule="evenodd"
    clipRule="evenodd"
    d="M18 8C17.4477 8 17 8.44772 17 9V15C17 15.5523 17.4477 16 18 16H20C20.5523 16 21 15.5523 21 15V9C21 8.44772 20.5523 8 20 8H18ZM18 9V15H20V9H18Z"
    fill="currentColor"
  />
  <path
    fillRule="evenodd"
    clipRule="evenodd"
    d="M8 18C8 17.4477 8.44772 17 9 17H15C15.5523 17 16 17.4477 16 18V20C16 20.5523 15.5523 21 15 21H9C8.44772 21 8 20.5523 8 20V18ZM9 18V20H15V18H9Z"
    fill="currentColor"
  />
</svg>