<svg width="268" height="268" viewBox="0 0 268 268" fill="none" xmlns="http://www.w3.org/2000/svg">
<mask id="mask0_49_160" style="mask-type:alpha" maskUnits="userSpaceOnUse" x="5" y="6" width="258" height="258">
<rect x="5" y="6" width="258" height="258" fill="#D9D9D9"/>
</mask>
<g mask="url(#mask0_49_160)">
<path d="M149.912 232.81C148.661 240.091 141.021 244.743 132.509 243.269C123.755 241.753 117.394 234.329 118.301 226.689C118.317 226.558 118.336 226.428 118.355 226.299L128.429 142.462L141.146 50.6685C141.193 50.5356 141.242 50.406 141.291 50.2776C142.735 42.9685 147.582 37.4596 154.633 36.3116C161.743 35.154 169.318 38.7202 174.756 45.0092C174.776 45.01 174.796 45.0096 174.816 45.0104L252.017 133.097C252.534 133.606 253.022 134.151 253.475 134.729C258.792 141.524 257.284 150.458 250.106 154.683C244.19 158.166 236.269 157.361 230.69 153.166C230.623 153.146 230.556 153.128 230.489 153.108L229.844 152.489C229.343 152.061 228.864 151.604 228.412 151.118L190.069 114.396C190.055 114.389 190.041 114.382 190.028 114.376C186.018 110.333 180.084 108.33 174.674 109.682C169.256 111.037 165.846 115.387 165.499 120.531L149.95 232.771C149.938 232.784 149.925 232.797 149.912 232.81Z" fill="white"/>
<path d="M117.933 232.78C119.195 240.058 126.843 244.694 135.352 243.202C144.103 241.667 150.453 234.23 149.535 226.592C149.519 226.461 149.5 226.331 149.48 226.202L139.278 142.387L126.42 50.62C126.373 50.4869 126.323 50.3568 126.274 50.2281C124.819 42.9224 119.962 37.4242 112.91 36.2913C105.798 35.1488 98.2289 38.7308 92.8005 45.0314C92.7808 45.0322 92.7611 45.0322 92.7414 45.0331L15.6755 133.283C15.1589 133.793 14.6718 134.338 14.2202 134.917C8.91323 141.724 10.4348 150.654 17.6192 154.865C23.5408 158.334 31.4604 157.513 37.0333 153.307C37.0998 153.287 37.1673 153.269 37.234 153.248L37.8783 152.628C38.3789 152.199 38.8568 151.741 39.3082 151.254L77.5949 114.45C77.6085 114.444 77.6223 114.437 77.6359 114.431C81.6392 110.379 87.5702 108.363 92.9827 109.705C98.4025 111.048 101.819 115.39 102.174 120.533L117.895 232.741C117.907 232.754 117.92 232.767 117.933 232.78Z" fill="white"/>
<path d="M150.392 228.7C150.463 237.456 143.134 244.637 134.022 244.74C124.91 244.842 117.465 237.827 117.393 229.072C117.322 220.316 124.651 213.135 133.763 213.032C142.876 212.93 150.32 219.945 150.392 228.7Z" fill="white"/>
</g>
</svg>
