<svg width="268" height="268" viewBox="0 0 268 268" fill="none" xmlns="http://www.w3.org/2000/svg">
<mask id="mask0_53_63" style="mask-type:alpha" maskUnits="userSpaceOnUse" x="5" y="5" width="258" height="258">
<rect x="5" y="5" width="258" height="258" fill="#D9D9D9"/>
</mask>
<g mask="url(#mask0_53_63)">
<path d="M149.912 231.81C148.661 239.091 141.021 243.743 132.509 242.269C123.755 240.753 117.394 233.329 118.301 225.689C118.317 225.558 118.336 225.428 118.355 225.299L128.429 141.462L141.146 49.6686C141.193 49.5357 141.242 49.406 141.291 49.2776C142.735 41.9685 147.582 36.4596 154.633 35.3116C161.743 34.154 169.318 37.7202 174.756 44.0092C174.776 44.01 174.796 44.0096 174.816 44.0104L252.017 132.097C252.534 132.606 253.022 133.151 253.475 133.729C258.792 140.524 257.284 149.458 250.106 153.683C244.19 157.166 236.269 156.361 230.69 152.166C230.623 152.146 230.556 152.128 230.489 152.108L229.844 151.489C229.343 151.061 228.864 150.604 228.412 150.118L190.069 113.396C190.055 113.389 190.041 113.382 190.028 113.376C186.018 109.333 180.084 107.33 174.674 108.682C169.256 110.037 165.846 114.387 165.499 119.531L149.95 231.771C149.938 231.784 149.925 231.797 149.912 231.81Z" fill="black"/>
<path d="M117.933 231.78C119.195 239.058 126.843 243.694 135.352 242.202C144.103 240.667 150.453 233.23 149.535 225.592C149.519 225.461 149.5 225.331 149.48 225.202L139.278 141.387L126.42 49.62C126.373 49.4869 126.323 49.3568 126.274 49.2281C124.819 41.9224 119.962 36.4242 112.91 35.2913C105.798 34.1488 98.2289 37.7308 92.8005 44.0314C92.7808 44.0322 92.7611 44.0323 92.7414 44.0331L15.6755 132.283C15.1589 132.793 14.6718 133.338 14.2202 133.917C8.91323 140.724 10.4348 149.654 17.6192 153.865C23.5408 157.334 31.4604 156.513 37.0333 152.307C37.0998 152.287 37.1673 152.269 37.234 152.248L37.8783 151.628C38.3789 151.199 38.8568 150.741 39.3082 150.254L77.5949 113.45C77.6085 113.444 77.6223 113.437 77.6359 113.431C81.6392 109.379 87.5702 107.363 92.9827 108.705C98.4025 110.048 101.819 114.39 102.174 119.533L117.895 231.741C117.907 231.754 117.92 231.767 117.933 231.78Z" fill="black"/>
<path d="M150.392 227.7C150.463 236.456 143.134 243.637 134.022 243.74C124.91 243.842 117.465 236.827 117.393 228.071C117.322 219.316 124.651 212.134 133.763 212.032C142.876 211.93 150.32 218.944 150.392 227.7Z" fill="black"/>
</g>
</svg>
