<svg width="974" height="268" viewBox="0 0 974 268" fill="none" xmlns="http://www.w3.org/2000/svg">
<path d="M301.832 84.1818H326.176L358.778 163.757H360.065L392.668 84.1818H417.012V194H397.923V118.554H396.904L366.554 193.678H352.29L321.94 118.393H320.921V194H301.832V84.1818ZM461.518 195.662C456.299 195.662 451.598 194.733 447.416 192.874C443.269 190.979 439.98 188.191 437.549 184.509C435.154 180.827 433.957 176.287 433.957 170.889C433.957 166.242 434.815 162.399 436.531 159.36C438.246 156.321 440.588 153.891 443.555 152.067C446.522 150.244 449.865 148.868 453.582 147.939C457.336 146.973 461.215 146.276 465.218 145.847C470.044 145.347 473.959 144.9 476.962 144.507C479.964 144.078 482.145 143.434 483.504 142.576C484.898 141.683 485.595 140.306 485.595 138.447V138.126C485.595 134.086 484.397 130.958 482.002 128.742C479.607 126.525 476.157 125.417 471.653 125.417C466.899 125.417 463.127 126.454 460.339 128.527C457.586 130.601 455.727 133.049 454.762 135.874L436.638 133.3C438.068 128.295 440.427 124.112 443.716 120.752C447.005 117.356 451.026 114.818 455.781 113.138C460.535 111.422 465.79 110.564 471.546 110.564C475.514 110.564 479.464 111.029 483.396 111.958C487.329 112.888 490.921 114.425 494.174 116.57C497.427 118.679 500.037 121.556 502.003 125.203C504.005 128.849 505.006 133.407 505.006 138.876V194H486.346V182.686H485.702C484.522 184.974 482.86 187.118 480.715 189.12C478.606 191.087 475.943 192.677 472.725 193.893C469.544 195.072 465.808 195.662 461.518 195.662ZM466.559 181.399C470.455 181.399 473.834 180.63 476.694 179.093C479.553 177.52 481.752 175.447 483.289 172.873C484.862 170.299 485.648 167.493 485.648 164.454V154.749C485.041 155.249 484.004 155.714 482.538 156.143C481.108 156.572 479.5 156.947 477.712 157.269C475.925 157.591 474.155 157.877 472.404 158.127C470.652 158.377 469.133 158.591 467.846 158.77C464.95 159.163 462.359 159.807 460.071 160.701C457.783 161.594 455.978 162.846 454.655 164.454C453.332 166.027 452.671 168.065 452.671 170.567C452.671 174.142 453.976 176.841 456.585 178.664C459.195 180.487 462.519 181.399 466.559 181.399ZM524.525 194V111.636H543.936V194H524.525ZM534.284 99.9467C531.209 99.9467 528.564 98.9279 526.348 96.8903C524.131 94.8169 523.023 92.3324 523.023 89.4368C523.023 86.5054 524.131 84.0209 526.348 81.9833C528.564 79.9099 531.209 78.8732 534.284 78.8732C537.394 78.8732 540.039 79.9099 542.22 81.9833C544.436 84.0209 545.544 86.5054 545.544 89.4368C545.544 92.3324 544.436 94.8169 542.22 96.8903C540.039 98.9279 537.394 99.9467 534.284 99.9467ZM583.308 84.1818V194H563.897V84.1818H583.308ZM604.127 84.1818H628.471L661.073 163.757H662.36L694.963 84.1818H719.307V194H700.218V118.554H699.199L668.849 193.678H654.585L624.235 118.393H623.216V194H604.127V84.1818ZM740.112 194V111.636H759.524V194H740.112ZM749.872 99.9467C746.797 99.9467 744.152 98.9279 741.936 96.8903C739.719 94.8169 738.611 92.3324 738.611 89.4368C738.611 86.5054 739.719 84.0209 741.936 81.9833C744.152 79.9099 746.797 78.8732 749.872 78.8732C752.982 78.8732 755.627 79.9099 757.808 81.9833C760.024 84.0209 761.132 86.5054 761.132 89.4368C761.132 92.3324 760.024 94.8169 757.808 96.8903C755.627 98.9279 752.982 99.9467 749.872 99.9467ZM798.896 145.74V194H779.484V111.636H798.038V125.632H799.003C800.898 121.02 803.918 117.356 808.065 114.639C812.248 111.922 817.413 110.564 823.562 110.564C829.246 110.564 834.197 111.779 838.415 114.21C842.669 116.641 845.958 120.162 848.282 124.774C850.641 129.385 851.803 134.98 851.767 141.558V194H832.356V144.56C832.356 139.055 830.926 134.748 828.066 131.637C825.242 128.527 821.328 126.972 816.323 126.972C812.927 126.972 809.906 127.723 807.261 129.224C804.651 130.69 802.596 132.817 801.094 135.605C799.629 138.394 798.896 141.772 798.896 145.74ZM907.963 195.609C899.705 195.609 892.574 193.893 886.568 190.461C880.598 186.993 876.004 182.096 872.787 175.768C869.57 169.405 867.961 161.916 867.961 153.301C867.961 144.828 869.57 137.393 872.787 130.994C876.04 124.559 880.58 119.555 886.407 115.98C892.234 112.369 899.08 110.564 906.944 110.564C912.021 110.564 916.811 111.386 921.315 113.031C925.855 114.639 929.859 117.142 933.326 120.538C936.83 123.934 939.582 128.259 941.584 133.514C943.586 138.733 944.587 144.954 944.587 152.175V158.127H877.077V145.043H925.98C925.944 141.325 925.14 138.018 923.567 135.123C921.994 132.192 919.796 129.886 916.972 128.206C914.183 126.525 910.93 125.685 907.212 125.685C903.244 125.685 899.759 126.651 896.756 128.581C893.753 130.476 891.412 132.978 889.732 136.088C888.087 139.162 887.247 142.541 887.211 146.223V157.644C887.211 162.434 888.087 166.545 889.839 169.977C891.591 173.373 894.039 175.983 897.185 177.806C900.331 179.594 904.013 180.487 908.231 180.487C911.055 180.487 913.611 180.094 915.899 179.308C918.187 178.485 920.171 177.288 921.851 175.715C923.531 174.142 924.801 172.194 925.658 169.87L943.783 171.908C942.639 176.698 940.458 180.88 937.241 184.455C934.059 187.994 929.984 190.747 925.015 192.713C920.046 194.643 914.362 195.609 907.963 195.609Z" fill="black"/>
<mask id="mask0_53_131" style="mask-type:alpha" maskUnits="userSpaceOnUse" x="5" y="5" width="258" height="258">
<rect x="5" y="5" width="258" height="258" fill="#D9D9D9"/>
</mask>
<g mask="url(#mask0_53_131)">
<path d="M149.912 231.81C148.661 239.091 141.021 243.743 132.509 242.269C123.755 240.753 117.394 233.329 118.301 225.689C118.317 225.558 118.336 225.428 118.355 225.299L128.429 141.462L141.146 49.6686C141.193 49.5357 141.243 49.406 141.291 49.2776C142.735 41.9685 147.582 36.4596 154.633 35.3116C161.743 34.154 169.318 37.7202 174.756 44.0092C174.776 44.01 174.796 44.0096 174.816 44.0104L252.017 132.097C252.534 132.606 253.022 133.151 253.475 133.729C258.792 140.524 257.284 149.458 250.106 153.683C244.19 157.166 236.269 156.361 230.69 152.166C230.623 152.146 230.556 152.128 230.489 152.108L229.844 151.489C229.343 151.061 228.864 150.604 228.412 150.118L190.069 113.396C190.055 113.389 190.041 113.382 190.028 113.376C186.018 109.333 180.084 107.33 174.674 108.682C169.256 110.037 165.846 114.387 165.499 119.531L149.95 231.771C149.938 231.784 149.925 231.797 149.912 231.81Z" fill="black"/>
<path d="M117.933 231.78C119.195 239.058 126.843 243.694 135.352 242.202C144.103 240.667 150.453 233.23 149.535 225.592C149.519 225.461 149.5 225.331 149.48 225.202L139.278 141.387L126.42 49.62C126.373 49.4869 126.323 49.3568 126.274 49.2281C124.819 41.9224 119.962 36.4242 112.91 35.2913C105.798 34.1488 98.2288 37.7308 92.8004 44.0314C92.7806 44.0322 92.761 44.0323 92.7412 44.0331L15.6753 132.283C15.1588 132.793 14.6716 133.338 14.2201 133.917C8.91311 140.724 10.4346 149.654 17.6191 153.865C23.5407 157.334 31.4603 156.513 37.0332 152.307C37.0997 152.287 37.1672 152.269 37.2338 152.248L37.8782 151.628C38.3787 151.199 38.8567 150.741 39.3081 150.254L77.5948 113.45C77.6084 113.444 77.6221 113.437 77.6358 113.431C81.639 109.379 87.57 107.363 92.9826 108.705C98.4024 110.048 101.819 114.39 102.174 119.533L117.895 231.741C117.907 231.754 117.92 231.767 117.933 231.78Z" fill="black"/>
<path d="M150.392 227.7C150.463 236.456 143.134 243.637 134.022 243.74C124.909 243.842 117.465 236.827 117.393 228.071C117.322 219.316 124.651 212.134 133.763 212.032C142.875 211.93 150.32 218.944 150.392 227.7Z" fill="black"/>
</g>
</svg>
