<svg width="205" height="218" viewBox="0 0 205 218" fill="none" xmlns="http://www.w3.org/2000/svg">
<path d="M102.27 200.5C169.27 180.5 187.77 133.5 182.77 45.5C129.77 43.5 101.77 17 101.77 17C101.77 17 74.7701 43.5 21.7701 45.5C16.7701 133.5 35.2703 180.5 102.27 200.5Z" fill="#05DF72"/>
<mask id="mask0_69_285" style="mask-type:alpha" maskUnits="userSpaceOnUse" x="21" y="17" width="163" height="184">
<path d="M102.27 200.5C169.27 180.5 187.77 133.5 182.77 45.5C129.77 43.5 101.77 17 101.77 17C101.77 17 74.7701 43.5 21.7701 45.5C16.7701 133.5 35.2703 180.5 102.27 200.5Z" fill="#CFFFE7"/>
</mask>
<g mask="url(#mask0_69_285)">
<path d="M22.5 184.5L165.152 62.0001L231.5 138.5L96.3626 216.5L22.5 184.5Z" fill="url(#paint0_linear_69_285)"/>
</g>
<mask id="mask1_69_285" style="mask-type:alpha" maskUnits="userSpaceOnUse" x="21" y="17" width="163" height="184">
<path d="M102.27 200.5C169.27 180.5 187.77 133.5 182.77 45.5C129.77 43.5 101.77 17 101.77 17C101.77 17 74.7701 43.5 21.7701 45.5C16.7701 133.5 35.2703 180.5 102.27 200.5Z" fill="white"/>
</mask>
<g mask="url(#mask1_69_285)">
<rect x="10.2701" y="-5" width="91" height="169" fill="url(#paint1_linear_69_285)"/>
</g>
<defs>
<linearGradient id="paint0_linear_69_285" x1="171" y1="192" x2="128.903" y2="118.129" gradientUnits="userSpaceOnUse">
<stop stop-color="#02542D"/>
<stop offset="0.326923" stop-color="#6D9D86" stop-opacity="0.576329"/>
<stop offset="0.987249" stop-color="white" stop-opacity="0"/>
</linearGradient>
<linearGradient id="paint1_linear_69_285" x1="113" y1="25" x2="59.5" y2="134" gradientUnits="userSpaceOnUse">
<stop stop-color="#02542D"/>
<stop offset="1" stop-color="#05DF72" stop-opacity="0"/>
</linearGradient>
</defs>
</svg>
