<svg width="260" height="260" viewBox="0 0 260 260" fill="none" xmlns="http://www.w3.org/2000/svg">
<mask id="mask0_61_65" style="mask-type:alpha" maskUnits="userSpaceOnUse" x="0" y="0" width="260" height="260">
<rect width="260" height="260" fill="#D9D9D9"/>
</mask>
<g mask="url(#mask0_61_65)">
<path d="M110.011 211.729C116.941 209.855 122.723 204.097 125.634 197.042C125.652 197.033 125.671 197.026 125.689 197.017L167.4 97.7979C167.708 97.1952 167.977 96.5756 168.201 95.9439C170.832 88.5394 166.469 82.1285 158.456 81.6246C151.851 81.2095 144.828 84.938 141.09 90.4079C141.036 90.449 140.98 90.4902 140.926 90.5318L140.538 91.2686C140.219 91.7996 139.931 92.3455 139.677 92.9032L116.618 136.677C116.608 136.688 116.597 136.699 116.587 136.71C114.244 141.446 109.449 145.337 104.02 146.393C98.5815 147.45 93.994 145.374 91.9624 141.478L40.2727 59.6039C40.257 59.5988 40.2405 59.593 40.2247 59.5879C36.6482 54.3716 28.0674 53.7143 20.725 58.1985C13.1734 62.8109 9.79118 71.1159 13.1704 76.7484C13.2253 76.84 13.2823 76.9309 13.3401 77.02L50.5419 138.792L92.8155 205.753C92.9038 205.84 92.993 205.924 93.0809 206.006C96.8444 211.167 103.141 213.587 110.011 211.729Z" fill="#05DF72"/>
<g filter="url(#filter0_d_61_65)">
<path d="M149.732 211.611C142.798 209.755 137 204.012 134.071 196.965C134.053 196.956 134.034 196.949 134.016 196.941L92.0422 97.8319C91.733 97.23 91.4622 96.6111 91.2361 95.98C88.586 88.5825 92.9315 82.1601 100.943 81.635C107.547 81.2025 114.581 84.9124 118.333 90.3724C118.387 90.4134 118.442 90.4543 118.496 90.4959L118.887 91.2316C119.207 91.7618 119.497 92.3069 119.752 92.8639L142.926 136.577C142.937 136.587 142.948 136.599 142.958 136.609C145.314 141.34 150.118 145.217 155.551 146.259C160.992 147.302 165.574 145.214 167.595 141.312L219.068 59.302C219.084 59.2968 219.1 59.291 219.116 59.2858C222.679 54.0601 231.258 53.3801 238.612 57.8449C246.176 62.4373 249.58 70.7333 246.216 76.3747C246.161 76.4665 246.104 76.5576 246.047 76.6468L209.008 138.517L166.912 205.589C166.824 205.676 166.735 205.76 166.647 205.843C162.897 211.014 156.607 213.45 149.732 211.611Z" fill="#05DF72"/>
</g>
</g>
<defs>
<filter id="filter0_d_61_65" x="88.3589" y="52.7879" width="161.254" height="161.533" filterUnits="userSpaceOnUse" color-interpolation-filters="sRGB">
<feFlood flood-opacity="0" result="BackgroundImageFix"/>
<feColorMatrix in="SourceAlpha" type="matrix" values="0 0 0 0 0 0 0 0 0 0 0 0 0 0 0 0 0 0 127 0" result="hardAlpha"/>
<feOffset/>
<feGaussianBlur stdDeviation="1.05"/>
<feComposite in2="hardAlpha" operator="out"/>
<feColorMatrix type="matrix" values="0 0 0 0 0 0 0 0 0 0 0 0 0 0 0 0 0 0 0.25 0"/>
<feBlend mode="normal" in2="BackgroundImageFix" result="effect1_dropShadow_61_65"/>
<feBlend mode="normal" in="SourceGraphic" in2="effect1_dropShadow_61_65" result="shape"/>
</filter>
</defs>
</svg>
